#define max_width  10
#define max_height 10
static unsigned char max_bits[] = {
 0x1f,0xfc,0x1f,0xfc,0x03,0xfc,0x03,0xfc,0x03,0xfc,0x00,0xff,
 0x00,0xff,0x00,0xff,0xe0,0xff,0xe0,0xff};
