#define max_width  12
#define max_height 12
static unsigned char max_bits[] = {
 0x18,0xf0,0x18,0xf0,0x18,0xf0,0x1f,0xf0,0x1f,0xf0,0x00,0xf0,
 0x00,0xf0,0x80,0xff,0x80,0xff,0x80,0xf1,0x80,0xf1,0x80,0xf1};
